<svg width="56" height="56" viewBox="0 0 56 56" fill="none" xmlns="http://www.w3.org/2000/svg">
<rect x="4" y="4" width="48" height="48" rx="24" fill="#6366F1" fill-opacity="0.08"/>
<rect x="4" y="4" width="48" height="48" rx="24" stroke="#6366F1" stroke-opacity="0.04" stroke-width="8"/>
<path d="M25.104 33.596C22.448 33.596 20.592 31.692 20.592 28.156V27.644C20.592 24.204 22.448 22.204 25.104 22.204C27.776 22.204 29.648 24.204 29.648 27.644V28.156C29.648 31.692 27.776 33.596 25.104 33.596ZM25.104 31.82C26.688 31.82 27.568 30.524 27.568 28.092V27.708C27.568 25.276 26.688 23.98 25.104 23.98C23.552 23.98 22.672 25.276 22.672 27.708V28.092C22.672 30.524 23.552 31.82 25.104 31.82ZM32.8584 33.5V26.06C32.6984 26.14 32.4744 26.172 32.2024 26.172H30.3464V24.428H32.0584C32.6664 24.428 32.9064 24.044 32.9064 23.484V22.3H34.9384V33.5H32.8584Z" fill="#6366F1"/>
</svg>
