<svg width="56" height="56" viewBox="0 0 56 56" fill="none" xmlns="http://www.w3.org/2000/svg">
<rect x="4" y="4" width="48" height="48" rx="24" fill="#6366F1" fill-opacity="0.08"/>
<rect x="4" y="4" width="48" height="48" rx="24" stroke="#6366F1" stroke-opacity="0.04" stroke-width="8"/>
<path d="M23.104 33.596C20.448 33.596 18.592 31.692 18.592 28.156V27.644C18.592 24.204 20.448 22.204 23.104 22.204C25.776 22.204 27.648 24.204 27.648 27.644V28.156C27.648 31.692 25.776 33.596 23.104 33.596ZM23.104 31.82C24.688 31.82 25.568 30.524 25.568 28.092V27.708C25.568 25.276 24.688 23.98 23.104 23.98C21.552 23.98 20.672 25.276 20.672 27.708V28.092C20.672 30.524 21.552 31.82 23.104 31.82ZM28.6344 33.5V31.868L32.9224 28.3C33.9144 27.468 34.5704 26.748 34.5704 25.772C34.5704 24.604 33.8504 23.964 32.7144 23.964C31.5624 23.964 30.7144 24.764 30.7144 26.044V26.22H28.6344V25.916C28.6344 23.804 30.2504 22.204 32.7144 22.204C35.2904 22.204 36.6824 23.612 36.6824 25.676C36.6824 27.34 35.7224 28.348 34.3464 29.484L31.6264 31.724H36.7464V33.5H28.6344Z" fill="#6366F1"/>
</svg>
