<svg width="56" height="56" viewBox="0 0 56 56" fill="none" xmlns="http://www.w3.org/2000/svg">
<rect x="4" y="4" width="48" height="48" rx="24" fill="#6366F1" fill-opacity="0.08"/>
<rect x="4" y="4" width="48" height="48" rx="24" stroke="#6366F1" stroke-opacity="0.04" stroke-width="8"/>
<path d="M23.104 33.596C20.448 33.596 18.592 31.692 18.592 28.156V27.644C18.592 24.204 20.448 22.204 23.104 22.204C25.776 22.204 27.648 24.204 27.648 27.644V28.156C27.648 31.692 25.776 33.596 23.104 33.596ZM23.104 31.82C24.688 31.82 25.568 30.524 25.568 28.092V27.708C25.568 25.276 24.688 23.98 23.104 23.98C21.552 23.98 20.672 25.276 20.672 27.708V28.092C20.672 30.524 21.552 31.82 23.104 31.82ZM34.1224 33.5V31.02H28.5544V29.26L33.6264 22.3H36.1704V29.26H37.7864V31.02H36.1704V33.5H34.1224ZM30.6024 29.26H34.1224V24.428L30.6024 29.26Z" fill="#6366F1"/>
</svg>
