<svg width="56" height="56" viewBox="0 0 56 56" fill="none" xmlns="http://www.w3.org/2000/svg">
<rect x="4" y="4" width="48" height="48" rx="24" fill="#6366F1" fill-opacity="0.08"/>
<rect x="4" y="4" width="48" height="48" rx="24" stroke="#6366F1" stroke-opacity="0.04" stroke-width="8"/>
<path d="M23.104 33.596C20.448 33.596 18.592 31.692 18.592 28.156V27.644C18.592 24.204 20.448 22.204 23.104 22.204C25.776 22.204 27.648 24.204 27.648 27.644V28.156C27.648 31.692 25.776 33.596 23.104 33.596ZM23.104 31.82C24.688 31.82 25.568 30.524 25.568 28.092V27.708C25.568 25.276 24.688 23.98 23.104 23.98C21.552 23.98 20.672 25.276 20.672 27.708V28.092C20.672 30.524 21.552 31.82 23.104 31.82ZM32.6843 33.596C30.0923 33.596 28.4603 32.284 28.4603 29.996H30.5082C30.5243 31.244 31.3883 31.932 32.7323 31.932C33.9003 31.932 34.8283 31.34 34.8283 30.22C34.8283 29.196 34.1403 28.668 32.7643 28.668H31.6283V26.956H32.6683C33.9803 26.956 34.6203 26.316 34.6203 25.372C34.6203 24.364 33.8043 23.868 32.7163 23.868C31.5483 23.868 30.7643 24.524 30.6843 25.66H28.6363C28.6842 23.596 30.3643 22.204 32.7483 22.204C35.2123 22.204 36.7003 23.372 36.7003 25.212C36.7003 26.572 35.9003 27.372 34.8123 27.66C35.9483 27.884 36.9403 28.684 36.9403 30.284C36.9403 32.284 35.2763 33.596 32.6843 33.596Z" fill="#6366F1"/>
</svg>
